<?xml version="1.0" encoding="utf-8"?>
<!-- Generator: Adobe Illustrator 24.3.0, SVG Export Plug-In . SVG Version: 6.00 Build 0)  -->
<svg version="1.1" id="Camada_1" xmlns="http://www.w3.org/2000/svg" xmlns:xlink="http://www.w3.org/1999/xlink" x="0px" y="0px"
	 viewBox="0 0 147 139" style="enable-background:new 0 0 147 139;" xml:space="preserve">
<style type="text/css">
	.st0{clip-path:url(#SVGID_2_);fill:url(#SVGID_3_);}
	.st1{fill:#F0FAE6;}
	.st2{fill:#96C85A;}
	.st3{clip-path:url(#SVGID_5_);fill:url(#SVGID_6_);}
	.st4{clip-path:url(#SVGID_8_);fill:url(#SVGID_9_);}
	.st5{fill:#003200;}
	.st6{fill:#64B432;}
</style>
<g>
	<defs>
		<path id="SVGID_4_" d="M115.62-0.07c8.16,9.52,2.89,24.78,4.69,36.66c1.93,12.73,16.55,16.79,16.55,16.79
			c0.9-18.83-9.83-39.09-9.83-39.09c13.63,18.16,13.29,40.95,12.66,49.04c-9.01-7.36-23.86-13.15-23.86-13.15
			C74.15-18.91,0.03,48.72,0.03,48.72c23.89-5.76,45.26,13.94,68.19,24.51C91.16,83.81,112.3,59.3,112.3,59.3
			C80.22,40.93,35.28,41.59,35.28,41.59C85.1,32.96,129.3,61.1,136.22,65.78c-6.85,2.81-13.56,7.8-13.56,7.8
			c-56.93-5.21-49.48,65.49-49.48,65.49c6.75-16.06,28.99-19.01,42.63-28.63c14.62-10.31,10.56-31.01,10.56-31.01
			c-23.95,10.6-42.45,36.53-42.45,36.53c17.43-34.93,56.99-47.72,56.99-47.72l-0.01-0.57l0.46,0.4c1.46-5.76,0.46-15.21,0.46-15.21
			C163.52,17.91,115.62-0.07,115.62-0.07L115.62-0.07z"/>
	</defs>
	<clipPath id="SVGID_2_">
		<use xlink:href="#SVGID_4_"  style="overflow:visible;"/>
	</clipPath>
	<linearGradient id="SVGID_3_" gradientUnits="userSpaceOnUse" x1="142.8972" y1="-60.641" x2="5.2649" y2="178.5234">
		<stop  offset="0.2926" style="stop-color:#96C85A"/>
		<stop  offset="0.7865" style="stop-color:#003200"/>
	</linearGradient>
	<rect x="-21" y="-49.5" class="st0" width="197" height="205"/>
</g>
</svg>
