<?xml version="1.0" encoding="utf-8"?>
<!-- Generator: Adobe Illustrator 24.3.0, SVG Export Plug-In . SVG Version: 6.00 Build 0)  -->
<svg version="1.1" id="Camada_1" xmlns="http://www.w3.org/2000/svg" xmlns:xlink="http://www.w3.org/1999/xlink" x="0px" y="0px"
	 viewBox="0 0 374 139" style="enable-background:new 0 0 374 139;" xml:space="preserve">
<style type="text/css">
	.st0{clip-path:url(#SVGID_2_);fill:url(#SVGID_3_);}
	.st1{clip-path:url(#SVGID_5_);fill:url(#SVGID_6_);}
	.st2{fill:#003200;}
	.st3{fill:#64B432;}
	.st4{clip-path:url(#SVGID_8_);fill:url(#SVGID_9_);}
	.st5{fill:#F0FAE6;}
</style>
<g>
	<g>
		<defs>
			<path id="SVGID_4_" d="M115.62,155.93c8.16,9.52,2.89,24.78,4.69,36.66c1.93,12.73,16.55,16.79,16.55,16.79
				c0.9-18.83-9.83-39.09-9.83-39.09c13.63,18.16,13.29,40.95,12.66,49.04c-9.01-7.36-23.86-13.15-23.86-13.15
				c-41.69-69.07-115.8-1.44-115.8-1.44c23.89-5.76,45.26,13.94,68.19,24.51c22.93,10.57,44.07-13.94,44.07-13.94
				c-32.08-18.36-77.03-17.71-77.03-17.71c49.83-8.63,94.03,19.52,100.95,24.19c-6.85,2.81-13.56,7.8-13.56,7.8
				c-56.93-5.21-49.48,65.49-49.48,65.49c6.75-16.06,28.99-19.01,42.63-28.63c14.62-10.31,10.56-31.01,10.56-31.01
				c-23.95,10.6-42.45,36.53-42.45,36.53c17.43-34.93,56.99-47.72,56.99-47.72l-0.01-0.57l0.46,0.4c1.46-5.76,0.46-15.21,0.46-15.21
				C163.52,173.91,115.62,155.93,115.62,155.93L115.62,155.93z"/>
		</defs>
		<clipPath id="SVGID_2_">
			<use xlink:href="#SVGID_4_"  style="overflow:visible;"/>
		</clipPath>
		<linearGradient id="SVGID_3_" gradientUnits="userSpaceOnUse" x1="142.8972" y1="95.359" x2="5.2649" y2="334.5234">
			<stop  offset="0.2926" style="stop-color:#96C85A"/>
			<stop  offset="0.7865" style="stop-color:#003200"/>
		</linearGradient>
		<rect x="-21" y="106.5" class="st0" width="197" height="205"/>
	</g>
</g>
<g>
	<g>
		<defs>
			<path id="SVGID_7_" d="M115.62-0.07c8.16,9.52,2.89,24.78,4.69,36.66c1.93,12.73,16.55,16.79,16.55,16.79
				c0.9-18.83-9.83-39.09-9.83-39.09c13.63,18.16,13.29,40.95,12.66,49.04c-9.01-7.36-23.86-13.15-23.86-13.15
				C74.15-18.91,0.03,48.72,0.03,48.72c23.89-5.76,45.26,13.94,68.19,24.51C91.16,83.81,112.3,59.3,112.3,59.3
				C80.22,40.93,35.28,41.59,35.28,41.59C85.1,32.96,129.3,61.1,136.22,65.78c-6.85,2.81-13.56,7.8-13.56,7.8
				c-56.93-5.21-49.48,65.49-49.48,65.49c6.75-16.06,28.99-19.01,42.63-28.63c14.62-10.31,10.56-31.01,10.56-31.01
				c-23.95,10.6-42.45,36.53-42.45,36.53c17.43-34.93,56.99-47.72,56.99-47.72l-0.01-0.57l0.46,0.4c1.46-5.76,0.46-15.21,0.46-15.21
				C163.52,17.91,115.62-0.07,115.62-0.07L115.62-0.07z"/>
		</defs>
		<clipPath id="SVGID_5_">
			<use xlink:href="#SVGID_7_"  style="overflow:visible;"/>
		</clipPath>
		<linearGradient id="SVGID_6_" gradientUnits="userSpaceOnUse" x1="142.8972" y1="-60.641" x2="5.2649" y2="178.5234">
			<stop  offset="0.2926" style="stop-color:#F0FAE6"/>
			<stop  offset="0.7865" style="stop-color:#96C85A"/>
		</linearGradient>
		<rect x="-21" y="-49.5" class="st1" width="197" height="205"/>
	</g>
	<g>
		<path class="st5" d="M190.01,61.93h5.76v16.38c-2.08,1.72-4.5,3.04-7.26,3.96c-2.76,0.92-5.64,1.38-8.64,1.38
			c-4.24,0-8.06-0.93-11.46-2.79c-3.4-1.86-6.07-4.42-8.01-7.68c-1.94-3.26-2.91-6.93-2.91-11.01s0.97-7.76,2.91-11.04
			c1.94-3.28,4.62-5.84,8.04-7.68s7.27-2.76,11.55-2.76c3.36,0,6.41,0.55,9.15,1.65c2.74,1.1,5.07,2.71,6.99,4.83l-3.72,3.72
			c-3.36-3.24-7.42-4.86-12.18-4.86c-3.2,0-6.07,0.69-8.61,2.07c-2.54,1.38-4.53,3.3-5.97,5.76s-2.16,5.23-2.16,8.31
			c0,3.04,0.72,5.79,2.16,8.25s3.43,4.39,5.97,5.79c2.54,1.4,5.39,2.1,8.55,2.1c3.76,0,7.04-0.9,9.84-2.7V61.93z"/>
		<path class="st5" d="M228.08,54.31c2.34,2.16,3.51,5.38,3.51,9.66v19.2h-5.46v-4.2c-0.96,1.48-2.33,2.61-4.11,3.39
			c-1.78,0.78-3.89,1.17-6.33,1.17c-3.56,0-6.41-0.86-8.55-2.58c-2.14-1.72-3.21-3.98-3.21-6.78c0-2.8,1.02-5.05,3.06-6.75
			c2.04-1.7,5.28-2.55,9.72-2.55h9.12v-1.14c0-2.48-0.72-4.38-2.16-5.7c-1.44-1.32-3.56-1.98-6.36-1.98c-1.88,0-3.72,0.31-5.52,0.93
			c-1.8,0.62-3.32,1.45-4.56,2.49l-2.4-4.32c1.64-1.32,3.6-2.33,5.88-3.03c2.28-0.7,4.7-1.05,7.26-1.05
			C222.37,51.07,225.74,52.15,228.08,54.31z M222.35,77.62c1.6-0.98,2.76-2.37,3.48-4.17v-4.44h-8.88c-4.88,0-7.32,1.64-7.32,4.92
			c0,1.6,0.62,2.86,1.86,3.78c1.24,0.92,2.96,1.38,5.16,1.38C218.85,79.09,220.75,78.6,222.35,77.62z"/>
		<path class="st5" d="M252.23,52.51c1.96-0.96,4.34-1.44,7.14-1.44v5.58c-0.32-0.04-0.76-0.06-1.32-0.06
			c-3.12,0-5.57,0.93-7.35,2.79c-1.78,1.86-2.67,4.51-2.67,7.95v15.84h-5.76v-31.8h5.52v5.34
			C248.79,54.87,250.27,53.47,252.23,52.51z"/>
		<path class="st5" d="M296.15,38.65v44.52h-5.52v-5.04c-1.28,1.76-2.9,3.1-4.86,4.02c-1.96,0.92-4.12,1.38-6.48,1.38
			c-3.08,0-5.84-0.68-8.28-2.04c-2.44-1.36-4.35-3.27-5.73-5.73s-2.07-5.29-2.07-8.49c0-3.2,0.69-6.02,2.07-8.46
			c1.38-2.44,3.29-4.34,5.73-5.7c2.44-1.36,5.2-2.04,8.28-2.04c2.28,0,4.38,0.43,6.3,1.29s3.52,2.13,4.8,3.81V38.65H296.15z
			 M285.23,77.08c1.64-0.94,2.92-2.26,3.84-3.96c0.92-1.7,1.38-3.65,1.38-5.85c0-2.2-0.46-4.15-1.38-5.85
			c-0.92-1.7-2.2-3.01-3.84-3.93c-1.64-0.92-3.46-1.38-5.46-1.38c-2.04,0-3.87,0.46-5.49,1.38s-2.9,2.23-3.84,3.93
			c-0.94,1.7-1.41,3.65-1.41,5.85c0,2.2,0.47,4.15,1.41,5.85c0.94,1.7,2.22,3.02,3.84,3.96c1.62,0.94,3.45,1.41,5.49,1.41
			C281.77,78.49,283.59,78.02,285.23,77.08z"/>
		<path class="st5" d="M335.69,69.19h-25.8c0.36,2.8,1.59,5.05,3.69,6.75c2.1,1.7,4.71,2.55,7.83,2.55c3.8,0,6.86-1.28,9.18-3.84
			l3.18,3.72c-1.44,1.68-3.23,2.96-5.37,3.84c-2.14,0.88-4.53,1.32-7.17,1.32c-3.36,0-6.34-0.69-8.94-2.07
			c-2.6-1.38-4.61-3.31-6.03-5.79c-1.42-2.48-2.13-5.28-2.13-8.4c0-3.08,0.69-5.86,2.07-8.34c1.38-2.48,3.28-4.41,5.7-5.79
			c2.42-1.38,5.15-2.07,8.19-2.07c3.04,0,5.75,0.69,8.13,2.07c2.38,1.38,4.24,3.31,5.58,5.79c1.34,2.48,2.01,5.32,2.01,8.52
			C335.81,67.89,335.77,68.47,335.69,69.19z M313.16,58.45c-1.86,1.68-2.95,3.88-3.27,6.6h20.4c-0.32-2.68-1.41-4.87-3.27-6.57
			c-1.86-1.7-4.17-2.55-6.93-2.55C317.33,55.93,315.02,56.77,313.16,58.45z"/>
		<path class="st5" d="M370.4,54.58c2.38,2.34,3.57,5.77,3.57,10.29v18.3h-5.76V65.53c0-3.08-0.74-5.4-2.22-6.96
			c-1.48-1.56-3.6-2.34-6.36-2.34c-3.12,0-5.58,0.91-7.38,2.73c-1.8,1.82-2.7,4.43-2.7,7.83v16.38h-5.76v-31.8h5.52v4.8
			c1.16-1.64,2.73-2.9,4.71-3.78c1.98-0.88,4.23-1.32,6.75-1.32C364.81,51.07,368.02,52.24,370.4,54.58z"/>
	</g>
	<g>
		<path class="st5" d="M162.88,112.61c-1.16-0.44-2.06-1.01-2.71-1.71l0.58-0.95c0.62,0.65,1.45,1.18,2.49,1.59
			c1.04,0.41,2.14,0.61,3.29,0.61c1.67,0,2.92-0.32,3.78-0.95c0.85-0.63,1.27-1.46,1.27-2.47c0-0.78-0.22-1.41-0.67-1.88
			s-1.01-0.83-1.67-1.08c-0.67-0.25-1.57-0.51-2.7-0.77c-1.28-0.32-2.31-0.63-3.09-0.93c-0.78-0.3-1.43-0.76-1.98-1.39
			s-0.81-1.46-0.81-2.51c0-0.85,0.23-1.63,0.67-2.34c0.45-0.71,1.14-1.27,2.06-1.69c0.93-0.42,2.08-0.63,3.46-0.63
			c0.97,0,1.92,0.14,2.85,0.42c0.93,0.28,1.74,0.67,2.43,1.15l-0.48,1.02c-0.7-0.48-1.47-0.85-2.31-1.1s-1.67-0.38-2.49-0.38
			c-1.62,0-2.84,0.33-3.67,0.98c-0.83,0.65-1.25,1.49-1.25,2.52c0,0.78,0.22,1.41,0.67,1.88c0.45,0.47,1.01,0.83,1.67,1.08
			s1.58,0.52,2.73,0.8c1.28,0.32,2.31,0.63,3.07,0.92c0.77,0.3,1.42,0.75,1.96,1.36c0.54,0.61,0.81,1.43,0.81,2.46
			c0,0.85-0.23,1.63-0.69,2.33c-0.46,0.7-1.16,1.26-2.11,1.67c-0.95,0.42-2.12,0.63-3.5,0.63
			C165.26,113.27,164.03,113.05,162.88,112.61z"/>
		<path class="st5" d="M237.91,95.64v17.5h-1.27v-8.33h-11.7v8.33h-1.28v-17.5h1.28v8.05h11.7v-8.05H237.91z"/>
		<path class="st5" d="M293.29,112.11c-1.38-0.77-2.47-1.84-3.26-3.19c-0.79-1.35-1.19-2.86-1.19-4.52c0-1.67,0.4-3.17,1.19-4.52
			c0.79-1.35,1.88-2.41,3.26-3.19c1.38-0.77,2.93-1.16,4.65-1.16s3.27,0.38,4.65,1.15c1.38,0.77,2.47,1.83,3.26,3.18
			c0.79,1.35,1.19,2.87,1.19,4.55c0,1.68-0.4,3.2-1.19,4.55c-0.79,1.35-1.88,2.41-3.26,3.18c-1.38,0.77-2.93,1.15-4.65,1.15
			S294.67,112.88,293.29,112.11z M301.91,111.09c1.18-0.67,2.12-1.59,2.8-2.76s1.03-2.49,1.03-3.94s-0.34-2.76-1.03-3.94
			s-1.62-2.1-2.8-2.76c-1.18-0.67-2.51-1-3.98-1s-2.8,0.33-3.99,1c-1.19,0.67-2.13,1.59-2.81,2.76s-1.02,2.49-1.02,3.94
			s0.34,2.76,1.02,3.94s1.62,2.1,2.81,2.76s2.52,1,3.99,1S300.73,111.76,301.91,111.09z"/>
		<path class="st5" d="M369.41,97.21c1.25,1.04,1.88,2.49,1.88,4.34c0,1.83-0.63,3.27-1.88,4.31c-1.25,1.04-2.97,1.56-5.17,1.56h-5
			v5.73h-1.28v-17.5h6.28C366.44,95.64,368.16,96.16,369.41,97.21z M368.51,105.04c0.98-0.82,1.48-1.98,1.48-3.5
			c0-1.52-0.49-2.69-1.48-3.51c-0.98-0.83-2.41-1.24-4.27-1.24h-5v9.48h5C366.11,106.27,367.53,105.86,368.51,105.04z"/>
	</g>
</g>
</svg>
